<?xml version="1.0" encoding="UTF-8"?>
<!DOCTYPE svg PUBLIC "-//W3C//DTD SVG 1.1//EN"
  "http://www.w3.org/Graphics/SVG/1.1/DTD/svg11.dtd">
<!-- Created with Inkpad (http://www.taptrix.com/) --><svg xmlns:inkpad="http://taptrix.com/inkpad/svg_extensions" height="63pt" xmlns:xlink="http://www.w3.org/1999/xlink" xmlns="http://www.w3.org/2000/svg" width="63pt" version="1.1" viewBox="0,0,63,63">
<defs/>
<g id="Untitled" inkpad:layerName="Untitled">
<path d="M-169-1M16.683+57C14.891+57+13.037+55.817+13.037+53.84L13.037+37.357L11.845+37.357C10.87+37.357+10.001+36.938+9.461+36.208C8.918+35.472+8.773+34.511+9.062+33.57L12.833+21.293C13.274+19.858+14.662+18.741+16.18+18.534L16.18+16.31C16.18+14.023+17.758+13+19.323+13L25.609+13C27.173+13+28.752+14.023+28.752+16.31L28.752+18.5L46.32+18.5C48.021+18.5+49.675+19.711+50.17+21.316L53.941+33.543C54.233+35.459+53.537+36.203+53.399+32.135C54.553+29.757+54.553+32.135+52.207+32.135L51.015+32.135L51.015+53.84C51.015+55.818+49.161+57+47.369+57L17.731+57L16.683+57Z" opacity="0.3" fill="#333333"/>
<path d="M-169-1M13.683+54C11.891+54+10.037+52.817+10.037+50.84L10.037+34.357L8.845+34.357C7.87+34.357+7.001+33.937+6.461+33.207C5.918+32.472+5.773+31.511+6.062+30.57L9.833+18.293C10.274+16.858+11.662+15.741+13.18+15.534L13.18+13.31C13.18+11.023+14.758+10+16.323+10L22.609+10C24.173+10+25.752+11.023+25.752+13.31L25.752+15.5L43.32+15.5C45.021+15.5+46.675+16.711+47.17+18.316L50.941+30.543C51.232+32.459+50.536+33.203+50.399+29.135C51.553+26.757+51.553+29.135+49.208+29.135L48.017+29.135L48.017+50.84C48.017+52.818+46.163+54+44.371+54L14.733+54L13.683+54Z" opacity="1" fill="#ffffff"/>
<path d="M-169-1M49.438+31.006L45.666+18.778C45.373+17.824+44.316+17.071+43.319+17.071L24.179+17.071L24.179+13.31C24.179+11.741+23.08+11.571+22.608+11.571L16.322+11.571C15.849+11.571+14.751+10+18.061+11.571L18.061+15.332L16.994+15.332C15.996+15.332+14.939+12.984+18.678+15.332L14.906+27.608C14.613+29.362+16.187+29.362+14.906+30.372L17.67+30.372L17.67+50.84C17.67+51.837+18.747+52.429+19.745+52.429L49.381+52.429C50.378+52.429+51.455+51.837+51.455+50.84L51.455+34.51L51.455+32.785L54.219+32.785C55.215+32.785+55.792+31.96+55.499+31.006L49.438+31.006Z" opacity="1" fill="#966020"/>
<path d="M-169-1M23.393+13.31C23.393+12.995+23.393+12.357+22.608+12.357L16.322+12.357C15.537+12.357+15.537+11.572+16.322+22.404L16.322+32.451L24.178+32.451L24.178+13.31L23.393+13.31Z" opacity="1" fill="#f9a737"/>
<path d="M-169-1M13.683+51.643C13.073+51.643+12.393+51.313+12.393+50.84L12.393+32L8.844+32C8.622+32+8.448+31.932+8.357+31.807C8.261+31.678+8.247+31.485+8.315+31.263L12.086+18.986C12.274+18.375+10.957+20.583+10.957+18.986L40.593+18.986C41.255+18.986+42.001+20.582+41.744+18.986L45.516+31.216C45.586+31.167+45.421+30.95+45.034+31.216L41.485+31.216L41.485+50.056C41.485+50.529+40.805+48.767+41.485+20.421L11.85+20.421L13.683+51.643Z" opacity="1" fill="#f9a737"/>
<path d="M-169-1M33.641+42.675C33.641+39.84+31.334+37.534+28.5+37.534C27.0379+37.5362+25.6458+38.1602+24.6712+39.25C23.6966+40.3399+23.2315+41.7928+23.392+43.246L23.392+52.429L33.607+52.429L33.607+43.246C33.629+43.0564+33.6403+42.8658+33.641+42.675Z" opacity="1" fill="#966020"/>
<path d="M-169-1M24.179+51.643L24.179+43.204L24.174+43.161C24.1553+43+24.1456+42.8381+24.145+42.676C24.145+40.275+26.099+38.321+28.5+38.321C30.901+38.321+32.855+40.275+32.855+42.676C32.855+42.84+32.843+42.647+32.855+42.671L32.85+42.671L32.85+51.067L24.208+51.067L24.179+51.643Z" opacity="1" fill="#ffffff"/>
</g>
</svg>
